<?xml version="1.0" encoding="UTF-8"?>
<svg width="265px" height="147px" viewBox="0 0 265 147" version="1.1" xmlns="http://www.w3.org/2000/svg" xmlns:xlink="http://www.w3.org/1999/xlink">
    <!-- Generator: Sketch 57.1 (83088) - https://sketch.com -->
    <title>Infinity Seeker-Logo-Black</title>
    <desc>Created with Sketch.</desc>
    <g id="Page-1" stroke="none" stroke-width="1" fill="none" fill-rule="evenodd">
        <g id="Logo-2---black" transform="translate(-117.000000, -76.000000)" fill-rule="nonzero">
            <g id="Infinity-Seeker-Logo-Black" transform="translate(117.500000, 76.500000)">
                <g id="Group" transform="translate(65.855951, 16.629419)" fill="#FFFFFF">
                    <g id="Text" transform="translate(0.000000, 0.831471)">
                        <path d="M0.0121376056,16.8632699 L9.21028482,16.8632699 L9.21028482,21.5402939 C10.9252022,19.5915242 12.7245393,18.1949268 14.60835,17.3504599 C16.4921608,16.505993 18.4214139,16.0837659 20.3961672,16.0837659 C22.4228878,16.0837659 24.2417123,16.3825728 25.8526953,16.9801955 C27.4636782,17.5778182 28.8213008,18.4287682 29.9256037,19.5330711 C31.0299065,20.637374 31.8808565,21.9625175 32.4784793,23.5085415 C33.076102,25.0545655 33.3749089,26.775953 33.3749089,28.6727555 L33.3749089,56.5400236 L24.1767616,56.5400236 L24.1767616,30.1538131 C24.1767616,29.1404529 24.033854,28.2440322 23.7480344,27.4645243 C23.4622149,26.6850164 23.0724668,26.0224446 22.5787784,25.4767891 C22.0850901,24.9311336 21.500468,24.5218981 20.8248944,24.2490703 C20.1493209,23.9762425 19.4347827,23.8398307 18.6812584,23.8398307 C17.4600294,23.8398307 16.2777935,24.093167 15.1345152,24.5998471 C13.991237,25.1065272 12.9843877,25.7820906 12.1139372,26.6265575 C11.2434867,27.4710244 10.5419402,28.4453947 10.0092764,29.5496975 C9.47661269,30.6540004 9.21028482,31.8037573 9.21028482,32.9990027 L9.21028482,56.5400236 L0.0121376056,56.5400236 L0.0121376056,16.8632699 Z M46.3146753,16.8632699 L46.3146753,9.26310588 C46.3146753,8.01589324 46.5680116,6.87263214 47.0746917,5.83328828 C47.5813718,4.79394441 48.2894142,3.89102797 49.1988401,3.12451187 C50.108266,2.35799577 51.1865691,1.76687782 52.4337817,1.35114027 C53.6809943,0.935402723 55.0581043,0.727537068 56.5651529,0.727537068 C56.9808905,0.727537068 57.4615798,0.747024473 58.0072353,0.785999868 C58.5528908,0.824975263 59.169992,0.909420685 59.8585573,1.03933867 C60.5471226,1.16925665 61.3331146,1.3706265 62.2165569,1.64345427 C63.0999992,1.91628203 64.1133443,2.29953434 65.2566225,2.79322267 L65.2566225,9.96465948 C64.1133443,9.57490553 63.1259824,9.26960285 62.2945073,9.04874228 C61.4630322,8.82788171 60.7614856,8.66548667 60.1898465,8.56155228 C59.6182074,8.4576179 59.1829887,8.39915568 58.8841773,8.38616388 C58.5853659,8.37317208 58.4099793,8.36667628 58.3580121,8.36667628 C58.0202254,8.36667628 57.6824437,8.4251385 57.3446569,8.54206468 C57.0068702,8.65899087 56.7015675,8.83437751 56.4287397,9.06822988 C56.1559119,9.30208225 55.9350547,9.58789753 55.7661613,9.92568428 C55.5972679,10.263471 55.5128225,10.6662107 55.5128225,11.1339155 L55.5128225,16.8632699 L62.7622097,16.8632699 L62.7622097,24.5024091 L55.5128225,24.5024091 L55.5128225,56.5400236 L46.3146753,56.5400236 L46.3146753,24.5024091 L40.0786433,24.5024091 L40.0786433,16.8632699 L46.3146753,16.8632699 Z M76.0917281,16.8632699 L76.0917281,56.5400236 L66.8935809,56.5400236 L66.8935809,16.8632699 L76.0917281,16.8632699 Z M71.4731669,2.20859467 C74.0024024,2.20859467 76.0527529,4.25894517 76.0527529,6.78818068 C76.0527529,9.31741619 74.0024024,11.3677667 71.4731669,11.3677667 C68.9439314,11.3677667 66.8935809,9.31741619 66.8935809,6.78818068 C66.8935809,4.25894517 68.9439314,2.20859467 71.4731669,2.20859467 Z M132.001653,2.20859467 C134.530888,2.20859467 136.581239,4.25894517 136.581239,6.78818068 C136.581239,9.31741619 134.530888,11.3677667 132.001653,11.3677667 C129.472417,11.3677667 127.422067,9.31741619 127.422067,6.78818068 C127.422067,4.25894517 129.472417,2.20859467 132.001653,2.20859467 Z M85.1339746,16.8632699 L94.3321218,16.8632699 L94.3321218,21.5402939 C96.0470391,19.5915242 97.8463762,18.1949268 99.730187,17.3504599 C101.613998,16.505993 103.543251,16.0837659 105.518004,16.0837659 C107.544725,16.0837659 109.363549,16.3825728 110.974532,16.9801955 C112.585515,17.5778182 113.943138,18.4287682 115.047441,19.5330711 C116.151743,20.637374 117.002693,21.9625175 117.600316,23.5085415 C118.197939,25.0545655 118.496746,26.775953 118.496746,28.6727555 L118.496746,56.5400236 L109.298599,56.5400236 L109.298599,30.1538131 C109.298599,29.1404529 109.155691,28.2440322 108.869871,27.4645243 C108.584052,26.6850164 108.194304,26.0224446 107.700615,25.4767891 C107.206927,24.9311336 106.622305,24.5218981 105.946731,24.2490703 C105.271158,23.9762425 104.55662,23.8398307 103.803095,23.8398307 C102.581866,23.8398307 101.39963,24.093167 100.256352,24.5998471 C99.1130739,25.1065272 98.1062247,25.7820906 97.2357742,26.6265575 C96.3653237,27.4710244 95.6637771,28.4453947 95.1311134,29.5496975 C94.5984496,30.6540004 94.3321218,31.8037573 94.3321218,32.9990027 L94.3321218,56.5400236 L85.1339746,56.5400236 L85.1339746,16.8632699 Z M136.620214,16.8632699 L136.620214,56.5400236 L127.422067,56.5400236 L127.422067,16.8632699 L136.620214,16.8632699 Z M156.770392,5.95021388 L156.770392,16.8632699 L164.058755,16.8632699 L164.058755,24.3854835 L156.770392,24.3854835 L156.770392,45.9777443 C156.770392,47.0690554 157.023729,47.9784676 157.530409,48.7060084 C158.037089,49.4335491 158.745131,49.797314 159.654557,49.797314 C159.940377,49.797314 160.512007,49.7518433 161.369466,49.6609008 C162.226925,49.5699582 163.40916,49.2256807 164.916209,48.628058 L164.916209,55.8774452 C163.305226,56.5010515 161.778713,56.8972954 160.336623,57.0661888 C158.894533,57.2350821 157.705802,57.3195276 156.770392,57.3195276 C155.549163,57.3195276 154.379919,57.0726871 153.262624,56.5789988 C152.14533,56.0853104 151.164464,55.3902596 150.319997,54.4938256 C149.47553,53.5973915 148.806462,52.5125862 148.312774,51.2393964 C147.819086,49.9662001 147.572245,48.5501153 147.572245,46.9910995 L147.572245,24.3854835 L141.920841,24.3854835 L141.920841,16.8632699 L147.572245,16.8632699 L147.572245,5.95021388 L156.770392,5.95021388 Z M179.707708,39.4920712 L188.633029,16.8632699 L198.065027,16.8632699 L181.617493,57.466961 C181.071837,58.7934448 180.389778,59.9344286 179.571295,60.8899466 C178.752811,61.8454646 177.875878,62.63235 176.940469,63.2506263 C176.005059,63.8689027 175.043681,64.3297927 174.056304,64.6333102 C173.068927,64.9368277 172.146523,65.0885841 171.289065,65.0885841 C170.899311,65.0885841 170.457596,65.0604811 169.963908,65.0042741 C169.47022,64.9480672 168.950555,64.8581374 168.4049,64.7344822 C167.859244,64.6108269 167.307101,64.4590704 166.748454,64.2792082 C166.189807,64.099346 165.663647,63.8857628 165.169958,63.6384523 L165.169958,57.500685 C166.131351,57.9503406 166.96931,58.2538535 167.683859,58.4112329 C168.398408,58.5686124 168.976534,58.6473009 169.418255,58.6473009 C170.067845,58.6473009 170.639476,58.4843032 171.133164,58.1583029 C171.626852,57.8323027 172.081558,57.3264478 172.497296,56.6407231 C172.913033,55.9549984 173.322269,55.0894245 173.725015,54.0439754 C174.12776,52.9985263 174.588962,51.7563716 175.108634,50.3174739 C174.770848,49.5305767 174.420074,48.7099677 174.056304,47.8556222 C173.692534,47.0012767 173.270306,46.0008081 172.78961,44.8541865 C172.308913,43.7075649 171.737283,42.3473774 171.074701,40.773583 C170.412119,39.1997887 169.60664,37.3000226 168.658239,35.0742277 C167.709837,32.8484329 166.599055,30.2460905 165.325859,27.2671226 C164.052663,24.2881548 162.57162,20.8202385 160.882686,16.8632699 L170.587511,16.8632699 L179.707708,39.4920712 Z" id="nfinity"></path>
                        <path d="M10.2635721,91.8178266 C10.4194737,93.2469244 10.7572554,94.604547 11.2769273,95.890735 C11.7965992,97.1769231 12.459171,98.3071926 13.2646625,99.2815774 C14.070154,100.255962 15.0055494,101.028963 16.0708769,101.600602 C17.1362044,102.172241 18.2794655,102.458056 19.5006945,102.458056 C21.7612674,102.458056 23.6385541,101.840955 25.1326109,100.606734 C26.6266677,99.3725134 27.8153994,97.5212099 28.6988417,95.0527682 L37.1954353,95.0527682 C36.6757634,97.4172755 35.837805,99.5219153 34.6815349,101.366751 C33.5252649,103.211586 32.1546507,104.770578 30.5696513,106.043775 C28.9846519,107.316971 27.2372813,108.291341 25.3274869,108.966915 C23.4176926,109.642488 21.4494646,109.98027 19.4227441,109.98027 C16.5645485,109.98027 13.992211,109.408639 11.7056545,108.265361 C9.41909798,107.122083 7.47035746,105.589074 5.85937447,103.666287 C4.24839148,101.743501 3.00769335,99.5024497 2.13724287,96.9430654 C1.26679238,94.3836812 0.831573664,91.6879235 0.831573664,88.8557114 C0.831573664,86.2053978 1.26679238,83.6655261 2.13724287,81.2360598 C3.00769335,78.8065935 4.24839148,76.662979 5.85937447,74.8051518 C7.47035746,72.9473246 9.42559378,71.4727777 11.7251421,70.3814666 C14.0246904,69.2901555 16.6035237,68.7445082 19.4617193,68.7445082 C22.2159805,68.7445082 24.7103684,69.2381891 26.9449577,70.2255658 C29.179547,71.2129425 31.0893127,72.5835566 32.6743121,74.3374494 C34.2593115,76.0913422 35.4740264,78.1570071 36.3184933,80.5345062 C37.1629602,82.9120053 37.5851873,85.477847 37.5851873,88.2321082 L37.5851873,91.8178266 L10.2635721,91.8178266 Z M28.2311393,84.8412658 C28.0752377,83.5940532 27.7569434,82.4637837 27.2762469,81.4504234 C26.7955504,80.4370631 26.1654576,79.5601299 25.3859497,78.8195974 C24.6064418,78.0790649 23.684038,77.5074344 22.6187105,77.1046886 C21.553383,76.7019429 20.3841387,76.500573 19.1109425,76.500573 C17.9416806,76.500573 16.8568818,76.7214303 15.8565133,77.1631514 C14.8561448,77.6048725 13.9727158,78.2024863 13.2061997,78.9560106 C12.4396836,79.7095349 11.803095,80.5929639 11.2964149,81.6063242 C10.7897347,82.6196845 10.4454573,83.6979876 10.2635721,84.8412658 L28.2311393,84.8412658 Z M51.6162594,91.8178266 C51.7721609,93.2469244 52.1099426,94.604547 52.6296146,95.890735 C53.1492865,97.1769231 53.8118583,98.3071926 54.6173498,99.2815774 C55.4228413,100.255962 56.3582367,101.028963 57.4235642,101.600602 C58.4888916,102.172241 59.6321527,102.458056 60.8533818,102.458056 C63.1139547,102.458056 64.9912414,101.840955 66.4852982,100.606734 C67.979355,99.3725134 69.1680867,97.5212099 70.051529,95.0527682 L78.5481226,95.0527682 C78.0284507,97.4172755 77.1904922,99.5219153 76.0342222,101.366751 C74.8779521,103.211586 73.507338,104.770578 71.9223386,106.043775 C70.3373392,107.316971 68.5899685,108.291341 66.6801742,108.966915 C64.7703798,109.642488 62.8021519,109.98027 60.7754314,109.98027 C57.9172357,109.98027 55.3448983,109.408639 53.0583418,108.265361 C50.7717853,107.122083 48.8230447,105.589074 47.2120617,103.666287 C45.6010788,101.743501 44.3603806,99.5024497 43.4899301,96.9430654 C42.6194797,94.3836812 42.1842609,91.6879235 42.1842609,88.8557114 C42.1842609,86.2053978 42.6194797,83.6655261 43.4899301,81.2360598 C44.3603806,78.8065935 45.6010788,76.662979 47.2120617,74.8051518 C48.8230447,72.9473246 50.7782811,71.4727777 53.0778294,70.3814666 C55.3773777,69.2901555 57.9562109,68.7445082 60.8144066,68.7445082 C63.5686678,68.7445082 66.0630557,69.2381891 68.297645,70.2255658 C70.5322343,71.2129425 72.442,72.5835566 74.0269994,74.3374494 C75.6119988,76.0913422 76.8267137,78.1570071 77.6711806,80.5345062 C78.5156475,82.9120053 78.9378746,85.477847 78.9378746,88.2321082 L78.9378746,91.8178266 L51.6162594,91.8178266 Z M69.5838266,84.8412658 C69.427925,83.5940532 69.1096307,82.4637837 68.6289342,81.4504234 C68.1482376,80.4370631 67.5181449,79.5601299 66.738637,78.8195974 C65.9591291,78.0790649 65.0367252,77.5074344 63.9713978,77.1046886 C62.9060703,76.7019429 61.736826,76.500573 60.4636298,76.500573 C59.2943679,76.500573 58.209569,76.7214303 57.2092006,77.1631514 C56.2088321,77.6048725 55.3254031,78.2024863 54.558887,78.9560106 C53.7923709,79.7095349 53.1557823,80.5929639 52.6491022,81.6063242 C52.142422,82.6196845 51.7981445,83.6979876 51.6162594,84.8412658 L69.5838266,84.8412658 Z M105.207159,84.6463898 C107.571667,88.6738473 109.994601,92.7662024 112.476034,96.9235778 C114.957468,101.080953 117.380402,105.173308 119.744909,109.200766 L109.338531,109.200766 L98.7762514,91.116273 L97.1003178,92.7922066 C96.5806459,93.3118786 96.1129482,93.7925679 95.6972106,94.234289 C95.2295059,94.7279774 94.7747998,95.1956751 94.3330786,95.6373962 L94.3330786,109.200766 L85.1349314,109.200766 L85.1349314,54.869337 L94.3330786,54.869337 L94.3330786,84.0617618 L109.104679,69.5240122 L120.329537,69.5240122 L105.207159,84.6463898 Z M131.67132,91.8178266 C131.827222,93.2469244 132.165004,94.604547 132.684675,95.890735 C133.204347,97.1769231 133.866919,98.3071926 134.672411,99.2815774 C135.477902,100.255962 136.413298,101.028963 137.478625,101.600602 C138.543953,102.172241 139.687214,102.458056 140.908443,102.458056 C143.169016,102.458056 145.046302,101.840955 146.540359,100.606734 C148.034416,99.3725134 149.223148,97.5212099 150.10659,95.0527682 L158.603184,95.0527682 C158.083512,97.4172755 157.245553,99.5219153 156.089283,101.366751 C154.933013,103.211586 153.562399,104.770578 151.9774,106.043775 C150.3924,107.316971 148.645029,108.291341 146.735235,108.966915 C144.825441,109.642488 142.857213,109.98027 140.830492,109.98027 C137.972297,109.98027 135.399959,109.408639 133.113403,108.265361 C130.826846,107.122083 128.878106,105.589074 127.267123,103.666287 C125.65614,101.743501 124.415442,99.5024497 123.544991,96.9430654 C122.674541,94.3836812 122.239322,91.6879235 122.239322,88.8557114 C122.239322,86.2053978 122.674541,83.6655261 123.544991,81.2360598 C124.415442,78.8065935 125.65614,76.662979 127.267123,74.8051518 C128.878106,72.9473246 130.833342,71.4727777 133.13289,70.3814666 C135.432439,69.2901555 138.011272,68.7445082 140.869468,68.7445082 C143.623729,68.7445082 146.118117,69.2381891 148.352706,70.2255658 C150.587295,71.2129425 152.497061,72.5835566 154.08206,74.3374494 C155.66706,76.0913422 156.881775,78.1570071 157.726242,80.5345062 C158.570708,82.9120053 158.992936,85.477847 158.992936,88.2321082 L158.992936,91.8178266 L131.67132,91.8178266 Z M149.638888,84.8412658 C149.482986,83.5940532 149.164692,82.4637837 148.683995,81.4504234 C148.203299,80.4370631 147.573206,79.5601299 146.793698,78.8195974 C146.01419,78.0790649 145.091786,77.5074344 144.026459,77.1046886 C142.961131,76.7019429 141.791887,76.500573 140.518691,76.500573 C139.349429,76.500573 138.26463,76.7214303 137.264262,77.1631514 C136.263893,77.6048725 135.380464,78.2024863 134.613948,78.9560106 C133.847432,79.7095349 133.210843,80.5929639 132.704163,81.6063242 C132.197483,82.6196845 131.853205,83.6979876 131.67132,84.8412658 L149.638888,84.8412658 Z M165.61872,69.5240122 L172.43938,69.5240122 L173.959412,74.3959122 C175.154658,72.5250932 176.395356,71.1155043 177.681544,70.167103 C178.967732,69.2187017 180.377321,68.7445082 181.910353,68.7445082 C182.378058,68.7445082 183.131571,68.8419452 184.170915,69.0368222 C185.210259,69.2316992 186.457453,69.7318759 187.912534,70.5373674 L187.912534,78.4883082 C186.951141,78.1245379 186.126174,77.8387226 185.437609,77.6308538 C184.749043,77.422985 184.177413,77.2735816 183.7227,77.182639 C183.267987,77.0916964 182.917214,77.03973 182.67037,77.0267382 C182.423525,77.0137464 182.248138,77.0072506 182.144204,77.0072506 C181.000926,77.0072506 179.974589,77.2475953 179.065164,77.7282918 C178.155738,78.2089883 177.389233,78.8455769 176.765627,79.6380766 C176.14202,80.4305763 175.661331,81.3464843 175.323544,82.3858282 C174.985758,83.4251721 174.816867,84.5034752 174.816867,85.6207698 L174.816867,109.200766 L165.61872,109.200766 L165.61872,69.5240122 Z" id="eeker"></path>
                    </g>
                </g>
                <path d="M33.8919122,0.151486682 C38.6756093,0.654070993 43.1022477,2.23359799 47.1719602,4.89011507 C51.2416727,7.54663214 54.5616515,11.0287712 57.1319963,15.3366367 C59.702341,19.6445023 61.1481383,24.3471849 61.4694313,29.4448258 C61.7907244,34.5424667 60.8090103,39.6400311 58.5242594,44.7376719 C57.0962901,47.9685711 55.5612461,50.8942859 53.9190814,53.5149041 C52.2769167,56.1355223 50.3848858,58.7202028 48.2429318,61.2690232 C46.6492408,63.1654377 44.3243575,65.8468126 41.2682393,69.313197 L33.9188523,62.2154011 C37.5410511,57.8316657 40.3677249,54.1705649 42.3989273,51.232031 C45.0621928,47.3790932 47.0056277,43.6882503 48.2292903,40.1593914 C49.8128536,35.7663223 50.2627228,31.7874135 49.5789114,28.2225459 C48.8950999,24.6576783 47.4375238,21.6149834 45.2061391,19.0943699 C42.9747544,16.5737565 40.4015027,14.7013288 37.4863066,13.4770309 C34.5711105,12.2527329 31.7819216,11.6405931 29.118656,11.6405931 C25.0877676,11.7126106 21.4348298,13.0449149 18.1597329,15.6375459 C14.8846361,18.2301769 12.5633111,21.5069252 11.1956882,25.4678893 C9.8280654,29.4288533 9.61212819,33.3537497 10.5478701,37.2426962 C11.915493,43.0761159 13.7329645,47.5411356 16.0003392,50.6378893 C18.2420406,53.6995786 22.9286585,58.908264 30.0603313,66.264099 L30.0607534,66.2653661 L30.1146141,66.3200808 C30.1783225,66.3857747 30.2422253,66.4516394 30.3063225,66.5176748 L30.309,66.514 L44.3278935,80.5189647 C45.9277751,82.3491652 47.2323576,83.8673274 48.2429318,85.0698613 C50.3848858,87.6186817 52.2769167,90.2033623 53.9190814,92.8239805 C55.5612461,95.4445986 57.0962901,98.3703134 58.5242594,101.601213 C60.8090103,106.770651 61.7907244,111.904114 61.4694313,117.001755 C61.1481383,122.099396 59.6844917,126.802078 57.0784477,131.109944 C54.4724037,135.417809 51.1345756,138.899948 47.0648631,141.556466 C42.9951506,144.212983 38.6042108,145.756611 33.8919122,146.187398 C28.3228319,146.76178 22.8073832,145.702779 17.3454006,143.010363 C11.8834181,140.317947 7.49247835,136.369129 4.17244973,131.163792 C0.852421113,125.958454 -0.486280024,120.160872 0.15630616,113.770872 C0.656095415,108.745029 1.88770046,103.934651 3.85115825,99.3395945 C5.81461603,94.7445379 7.99223655,90.8316188 10.3840851,87.6007196 C12.7759337,84.3698205 15.4890347,81.2287156 18.5234694,78.1773109 C19.0412871,77.6565974 19.5180407,77.1761322 19.9537305,76.735915 L27.0476232,84.8379874 C23.8416869,88.1418708 21.3506772,90.8039218 19.574547,92.82419 C17.2324568,95.4882124 15.3768286,98.116195 14.0076066,100.708217 C12.6383847,103.300238 11.485373,106.612217 10.5485369,110.64425 C9.6117008,114.604284 9.82789049,118.564257 11.1971125,122.524291 C12.5663344,126.484324 14.8903737,129.760302 18.1693,132.352324 C21.4482262,134.944346 25.1054353,136.276337 29.1410369,136.348338 C32.6721882,136.492339 36.3654289,135.430346 40.2208697,133.162327 C44.0763105,130.894308 46.8867766,127.58233 48.6523523,123.226293 C50.4179279,118.870257 50.2918173,113.704291 48.2740165,107.728241 C46.9768589,104.12821 44.9771041,100.420235 42.2746924,96.6042028 C39.6094963,92.8407226 35.7002051,87.8867858 30.5467041,81.7422476 L30.5477307,81.7227125 L23.3944042,73.1720912 C23.3950792,73.1711955 23.3957412,73.1703125 23.3963903,73.1694423 C21.6828271,71.4462961 19.6837001,69.4180398 17.3989492,67.0846126 C15.1141983,64.7511855 12.7759337,62.0049624 10.3840851,58.845861 C7.99223655,55.6867596 5.81461603,51.8097388 3.85115825,47.2146822 C1.88770046,42.6196257 0.656095415,37.7374513 0.15630616,32.5680127 C-0.486280024,26.1780122 0.852421113,20.3804301 4.17244973,15.1750926 C7.49247835,9.96975508 11.8834181,6.02093758 17.3454006,3.32852162 C22.8073832,0.636105668 28.3228319,-0.422895388 33.8919122,0.151486682 Z" id="Combined-Shape" fill="#FFFFFF"></path>
                <circle id="Oval" fill="#000000" cx="54.4340025" cy="24.2490703" r="4.57958601"></circle>
            </g>
        </g>
    </g>
</svg>