<?xml version="1.0" encoding="UTF-8"?>
<svg width="257px" height="142px" viewBox="0 0 257 142" version="1.1" xmlns="http://www.w3.org/2000/svg" xmlns:xlink="http://www.w3.org/1999/xlink">
    <!-- Generator: Sketch 57.1 (83088) - https://sketch.com -->
    <title>Infinity-Seeker-Logo-White</title>
    <desc>Created with Sketch.</desc>
    <g id="Page-1" stroke="none" stroke-width="1" fill="none" fill-rule="evenodd">
        <g id="Logo-2" transform="translate(-121.000000, -79.000000)" fill-rule="nonzero">
            <g id="Infinity-Seeker-Logo-White" transform="translate(121.500000, 79.000000)">
                <g id="Group" transform="translate(62.931818, 16.136364)" fill="#000000">
                    <g id="Text" transform="translate(0.000000, 0.806818)">
                        <path d="M0.983309659,16.3632812 L9.9087358,16.3632812 L9.9087358,20.9016335 C11.5728066,19.010644 13.3187941,17.6554551 15.1467507,16.8360263 C16.9747073,16.0165975 18.8467589,15.6068892 20.7629616,15.6068892 C22.7295908,15.6068892 24.4944879,15.8968366 26.057706,16.4767401 C27.620924,17.0566435 28.9382936,17.8823633 30.0098544,18.953924 C31.0814152,20.0254848 31.9071349,21.3113384 32.4870384,22.8115234 C33.0669418,24.3117085 33.3568892,25.9820576 33.3568892,27.8226207 L33.3568892,54.8636364 L24.4314631,54.8636364 L24.4314631,29.2597656 C24.4314631,28.276451 24.2927926,27.4066089 24.0154474,26.6502131 C23.7381023,25.8938172 23.3599101,25.2508904 22.8808594,24.7214134 C22.4018087,24.1919363 21.8345203,23.7948344 21.1789773,23.5300959 C20.5234342,23.2653573 19.8300818,23.1329901 19.0988991,23.1329901 C17.913879,23.1329901 16.7666959,23.378815 15.6573153,23.8704723 C14.5479348,24.3621296 13.5709382,25.0176628 12.7262962,25.8370916 C11.8816542,26.6565204 11.2009081,27.602001 10.6840376,28.6735618 C10.1671672,29.7451225 9.9087358,30.8607897 9.9087358,32.0205966 L9.9087358,54.8636364 L0.983309659,54.8636364 L0.983309659,16.3632812 Z M45.9129972,16.3632812 L45.9129972,8.98845881 C45.9129972,7.77822548 46.1588221,6.66886158 46.6504794,5.66033381 C47.1421367,4.65180604 47.8291859,3.77566068 48.7116477,3.03187145 C49.5941095,2.28808222 50.6404414,1.71449065 51.8506747,1.31107955 C53.060908,0.907668438 54.3971873,0.705965909 55.8595526,0.705965909 C56.2629637,0.705965909 56.7294008,0.724875521 57.2588778,0.762695312 C57.7883549,0.800515104 58.3871593,0.882456756 59.0553089,1.00852273 C59.7234586,1.1345887 60.4861463,1.32998802 61.3433949,1.59472656 C62.2006435,1.8594651 63.1839433,2.23135414 64.2933239,2.71040483 L64.2933239,9.66921165 C63.1839433,9.29101373 62.2258563,8.99476315 61.4190341,8.78045099 C60.6122119,8.56613884 59.9314658,8.40855874 59.3767756,8.30770597 C58.8220853,8.20685319 58.3997706,8.15012435 58.1098189,8.13751776 C57.8198672,8.12491116 57.6496806,8.11860795 57.5992543,8.11860795 C57.2714827,8.11860795 56.9437161,8.17533679 56.6159446,8.28879616 C56.2881731,8.40225554 55.9919225,8.57244205 55.7271839,8.7993608 C55.4624454,9.02627954 55.2481365,9.30362052 55.0842507,9.63139205 C54.9203649,9.95916357 54.8384233,10.3499622 54.8384233,10.8037997 L54.8384233,16.3632812 L61.8728693,16.3632812 L61.8728693,23.7759233 L54.8384233,23.7759233 L54.8384233,54.8636364 L45.9129972,54.8636364 L45.9129972,23.7759233 L39.8618608,23.7759233 L39.8618608,16.3632812 L45.9129972,16.3632812 Z M74.8071733,16.3632812 L74.8071733,54.8636364 L65.8817472,54.8636364 L65.8817472,16.3632812 L74.8071733,16.3632812 Z M70.3255504,2.1431108 C72.7797952,2.1431108 74.7693537,4.13266929 74.7693537,6.58691406 C74.7693537,9.04115884 72.7797952,11.0307173 70.3255504,11.0307173 C67.8713057,11.0307173 65.8817472,9.04115884 65.8817472,6.58691406 C65.8817472,4.13266929 67.8713057,2.1431108 70.3255504,2.1431108 Z M129.059393,2.1431108 C131.513638,2.1431108 133.503196,4.13266929 133.503196,6.58691406 C133.503196,9.04115884 131.513638,11.0307173 129.059393,11.0307173 C126.605148,11.0307173 124.615589,9.04115884 124.615589,6.58691406 C124.615589,4.13266929 126.605148,2.1431108 129.059393,2.1431108 Z M83.581321,16.3632812 L92.5067472,16.3632812 L92.5067472,20.9016335 C94.170818,19.010644 95.9168055,17.6554551 97.7447621,16.8360263 C99.5727187,16.0165975 101.44477,15.6068892 103.360973,15.6068892 C105.327602,15.6068892 107.092499,15.8968366 108.655717,16.4767401 C110.218935,17.0566435 111.536305,17.8823633 112.607866,18.953924 C113.679427,20.0254848 114.505146,21.3113384 115.08505,22.8115234 C115.664953,24.3117085 115.954901,25.9820576 115.954901,27.8226207 L115.954901,54.8636364 L107.029474,54.8636364 L107.029474,29.2597656 C107.029474,28.276451 106.890804,27.4066089 106.613459,26.6502131 C106.336114,25.8938172 105.957921,25.2508904 105.478871,24.7214134 C104.99982,24.1919363 104.432532,23.7948344 103.776989,23.5300959 C103.121446,23.2653573 102.428093,23.1329901 101.696911,23.1329901 C100.51189,23.1329901 99.3647073,23.378815 98.2553267,23.8704723 C97.1459462,24.3621296 96.1689495,25.0176628 95.3243075,25.8370916 C94.4796655,26.6565204 93.7989195,27.602001 93.282049,28.6735618 C92.7651785,29.7451225 92.5067472,30.8607897 92.5067472,32.0205966 L92.5067472,54.8636364 L83.581321,54.8636364 L83.581321,16.3632812 Z M133.541016,16.3632812 L133.541016,54.8636364 L124.615589,54.8636364 L124.615589,16.3632812 L133.541016,16.3632812 Z M153.09375,5.77379261 L153.09375,16.3632812 L160.166016,16.3632812 L160.166016,23.6624645 L153.09375,23.6624645 L153.09375,44.6145241 C153.09375,45.6734783 153.339575,46.5559269 153.831232,47.2618963 C154.32289,47.9678657 155.009939,48.3208452 155.892401,48.3208452 C156.169746,48.3208452 156.724428,48.2767227 157.556463,48.1884766 C158.388498,48.1002304 159.535682,47.7661606 160.998047,47.1862571 L160.998047,54.2207031 C159.434829,54.8258198 157.953576,55.2103152 156.554244,55.374201 C155.154911,55.5380868 154.001425,55.6200284 153.09375,55.6200284 C151.90873,55.6200284 150.774153,55.3805067 149.689986,54.901456 C148.605818,54.4224053 147.654035,53.7479624 146.834606,52.8781072 C146.015177,52.008252 145.365947,50.9556108 144.886896,49.7201705 C144.407846,48.4847239 144.168324,47.1106255 144.168324,45.5978338 L144.168324,23.6624645 L138.684482,23.6624645 L138.684482,16.3632812 L144.168324,16.3632812 L144.168324,5.77379261 L153.09375,5.77379261 Z M175.350984,38.3211484 L184.011673,16.3632812 L193.164017,16.3632812 L177.204145,55.7630905 C176.674668,57.0502447 176.012831,58.1573988 175.218616,59.0845861 C174.4244,60.0117734 173.573467,60.7753279 172.665792,61.3752727 C171.758117,61.9752174 170.825243,62.4224422 169.867142,62.7169605 C168.90904,63.0114788 168.013985,63.1587358 167.18195,63.1587358 C166.803752,63.1587358 166.375134,63.131466 165.896084,63.0769256 C165.417033,63.0223851 164.912777,62.9351218 164.383299,62.8151328 C163.853822,62.6951439 163.31805,62.5478869 162.775966,62.3733575 C162.233883,62.1988282 161.723323,61.9915776 161.244272,61.7515997 L161.244272,55.7958146 C162.177161,56.2321381 162.990274,56.526652 163.683637,56.6793652 C164.377,56.8320784 164.937985,56.9084338 165.366609,56.9084338 C165.996939,56.9084338 166.551621,56.750269 167.030672,56.4339345 C167.509722,56.1176 167.950947,55.6267435 168.354358,54.9613502 C168.757769,54.295957 169.154871,53.456047 169.545675,52.441595 C169.93648,51.427143 170.384007,50.2218176 170.888271,48.8255826 C170.5605,48.0620166 170.220127,47.2657382 169.867142,46.4367237 C169.514157,45.6077092 169.104449,44.6369041 168.638005,43.5242793 C168.171561,42.4116546 167.616879,41.091796 166.973942,39.564664 C166.331006,38.0375319 165.549408,36.1940931 164.629127,34.0342921 C163.708845,31.874491 162.630997,29.349307 161.395551,26.4586643 C160.160104,23.5680215 158.722974,20.2029275 157.084116,16.3632812 L166.501197,16.3632812 L175.350984,38.3211484 Z" id="nfinity"></path>
                        <path d="M10.9307935,89.0954679 C11.2501574,90.8981981 11.5779273,92.2155809 11.9141032,93.0476163 C12.4183671,94.2956694 13.0612939,95.3924269 13.8429029,96.3379217 C14.6245119,97.2834165 15.5321733,98.0334977 16.5659143,98.588188 C17.5996552,99.1428783 18.7090192,99.4202193 19.8940393,99.4202193 C22.0875872,99.4202193 23.9092131,98.8214149 25.3589718,97.6237882 C26.8087305,96.4261614 27.9622168,94.6297483 28.8194654,92.2344948 L37.0641387,92.2344948 C36.5598748,94.5288955 35.7467615,96.5711336 34.6247744,98.3612704 C33.5027872,100.151407 32.1728112,101.664176 30.6348063,102.899623 C29.0968015,104.135069 27.4012396,105.08055 25.5480698,105.736093 C23.6949,106.391636 21.7850292,106.719403 19.8184001,106.719403 C17.0449487,106.719403 14.5488799,106.164721 12.3301188,105.05534 C10.1113577,103.945959 8.22039653,102.458403 6.65717849,100.592627 C5.09396044,98.7268506 3.89004848,96.5522452 3.04540647,94.0687456 C2.20076446,91.5852459 1.77844979,88.9694163 1.77844979,86.2211781 C1.77844979,83.6494451 2.20076446,81.1848795 3.04540647,78.8274458 C3.89004848,76.4700122 5.09396044,74.3899548 6.65717849,72.5872115 C8.22039653,70.7844681 10.1176609,69.3536408 12.3490286,68.2946866 C14.5803963,67.2357324 17.0827683,66.7062633 19.8562197,66.7062633 C22.5288183,66.7062633 24.9492486,67.1853068 27.1175833,68.1434082 C29.285918,69.1015096 31.13906,70.4314856 32.6770649,72.1333762 C34.2150697,73.8352668 35.3937689,75.8396857 36.2131977,78.146693 C37.0326265,80.4537003 37.4423347,82.9434659 37.4423347,85.6160644 L37.4423347,89.0954679 L13.0754706,89.0954679 L10.9307935,89.0954679 Z M28.3656302,82.325759 C28.214351,81.1155257 27.905494,80.0187682 27.4390499,79.0354536 C26.9726058,78.0521391 26.3611951,77.2012065 25.6047992,76.4826305 C24.8484034,75.7640545 23.9533484,75.2093725 22.9196075,74.818568 C21.8858665,74.4277635 20.7512898,74.2323642 19.5158433,74.2323642 C18.3812495,74.2323642 17.3286144,74.4466731 16.3579065,74.8752974 C15.3871985,75.3039217 14.5299627,75.8838165 13.7861735,76.6149991 C13.0423843,77.3461817 12.4246703,78.2034175 11.933013,79.1867321 C11.4413557,80.1700466 11.1072859,81.2163785 10.9307935,82.325759 L28.3656302,82.325759 Z M51.0573916,89.0954679 C51.2086707,90.4821935 51.5364373,91.7995632 52.0407012,93.0476163 C52.5449651,94.2956694 53.1878919,95.3924269 53.9695009,96.3379217 C54.75111,97.2834165 55.6587713,98.0334977 56.6925123,98.588188 C57.7262533,99.1428783 58.8356172,99.4202193 60.0206373,99.4202193 C62.2141852,99.4202193 64.0358112,98.8214149 65.4855698,97.6237882 C66.9353285,96.4261614 68.0888148,94.6297483 68.9460634,92.2344948 L77.1907367,92.2344948 C76.6864728,94.5288955 75.8733595,96.5711336 74.7513724,98.3612704 C73.6293852,100.151407 72.2994092,101.664176 70.7614043,102.899623 C69.2233995,104.135069 67.5278376,105.08055 65.6746678,105.736093 C63.8214981,106.391636 61.9116272,106.719403 59.9449981,106.719403 C57.1715467,106.719403 54.6754779,106.164721 52.4567168,105.05534 C50.2379557,103.945959 48.3469945,102.458403 46.7837765,100.592627 C45.2205585,98.7268506 44.0166465,96.5522452 43.1720045,94.0687456 C42.3273625,91.5852459 41.9050478,88.9694163 41.9050478,86.2211781 C41.9050478,83.6494451 42.3273625,81.1848795 43.1720045,78.8274458 C44.0166465,76.4700122 45.2205585,74.3899548 46.7837765,72.5872115 C48.3469945,70.7844681 50.2442589,69.3536408 52.4756266,68.2946866 C54.7069943,67.2357324 57.2093663,66.7062633 59.9828177,66.7062633 C62.6554163,66.7062633 65.0758466,67.1853068 67.2441813,68.1434082 C69.412516,69.1015096 71.265658,70.4314856 72.8036629,72.1333762 C74.3416677,73.8352668 75.5203669,75.8396857 76.3397957,78.146693 C77.1592245,80.4537003 77.5689327,82.9434659 77.5689327,85.6160644 L77.5689327,89.0954679 L51.0573916,89.0954679 Z M68.4922282,82.325759 C68.340949,81.1155257 68.032092,80.0187682 67.5656479,79.0354536 C67.0992039,78.0521391 66.4877931,77.2012065 65.7313972,76.4826305 C64.9750014,75.7640545 64.0799464,75.2093725 63.0462055,74.818568 C62.0124645,74.4277635 60.8778878,74.2323642 59.6424413,74.2323642 C58.5078475,74.2323642 57.4552125,74.4466731 56.4845045,74.8752974 C55.5137965,75.3039217 54.6565608,75.8838165 53.9127715,76.6149991 C53.1689823,77.3461817 52.5512683,78.2034175 52.059611,79.1867321 C51.5679537,80.1700466 51.2338839,81.2163785 51.0573916,82.325759 L68.4922282,82.325759 Z M103.059345,82.136661 C105.353745,86.0447061 107.70484,90.0157247 110.112701,94.0498357 C112.520561,98.0839468 114.871656,102.054965 117.166056,105.96301 L107.068223,105.96301 L96.8191103,88.414715 L95.1928674,90.0409579 C94.6886035,90.5452218 94.2347728,91.0116589 93.8313617,91.4402832 C93.3775242,91.9193339 92.9362999,92.3731646 92.5076756,92.8017889 L92.5076756,105.96301 L83.5822495,105.96301 L83.5822495,53.2424849 L92.5076756,53.2424849 L92.5076756,81.569367 L106.841305,67.4626554 L117.73335,67.4626554 L103.059345,82.136661 Z M128.738855,89.0954679 C128.890134,90.4821935 129.2179,91.7995632 129.722164,93.0476163 C130.226428,94.2956694 130.869355,95.3924269 131.650964,96.3379217 C132.432573,97.2834165 133.340234,98.0334977 134.373975,98.588188 C135.407716,99.1428783 136.51708,99.4202193 137.7021,99.4202193 C139.895648,99.4202193 141.717274,98.8214149 143.167033,97.6237882 C144.616792,96.4261614 145.770278,94.6297483 146.627526,92.2344948 L154.8722,92.2344948 C154.367936,94.5288955 153.554823,96.5711336 152.432835,98.3612704 C151.310848,100.151407 149.980872,101.664176 148.442867,102.899623 C146.904863,104.135069 145.209301,105.08055 143.356131,105.736093 C141.502961,106.391636 139.59309,106.719403 137.626461,106.719403 C134.85301,106.719403 132.356941,106.164721 130.13818,105.05534 C127.919419,103.945959 126.028458,102.458403 124.46524,100.592627 C122.902022,98.7268506 121.69811,96.5522452 120.853468,94.0687456 C120.008826,91.5852459 119.586511,88.9694163 119.586511,86.2211781 C119.586511,83.6494451 120.008826,81.1848795 120.853468,78.8274458 C121.69811,76.4700122 122.902022,74.3899548 124.46524,72.5872115 C126.028458,70.7844681 127.925722,69.3536408 130.15709,68.2946866 C132.388457,67.2357324 134.890829,66.7062633 137.664281,66.7062633 C140.336879,66.7062633 142.75731,67.1853068 144.925644,68.1434082 C147.093979,69.1015096 148.947121,70.4314856 150.485126,72.1333762 C152.023131,73.8352668 153.20183,75.8396857 154.021259,78.146693 C154.840688,80.4537003 155.250396,82.9434659 155.250396,85.6160644 L155.250396,89.0954679 L128.738855,89.0954679 Z M146.173691,82.325759 C146.022412,81.1155257 145.713555,80.0187682 145.247111,79.0354536 C144.780667,78.0521391 144.169256,77.2012065 143.41286,76.4826305 C142.656464,75.7640545 141.76141,75.2093725 140.727669,74.818568 C139.693928,74.4277635 138.559351,74.2323642 137.323904,74.2323642 C136.189311,74.2323642 135.136676,74.4466731 134.165968,74.8752974 C133.19526,75.3039217 132.338024,75.8838165 131.594235,76.6149991 C130.850445,77.3461817 130.232731,78.2034175 129.741074,79.1867321 C129.249417,80.1700466 128.915347,81.2163785 128.738855,82.325759 L146.173691,82.325759 Z M161.679728,67.4626554 L168.298159,67.4626554 L169.773123,72.1901056 C170.93293,70.3747556 172.136842,69.0069604 173.384895,68.0866788 C174.632948,67.1663972 176.000743,66.7062633 177.488322,66.7062633 C177.942159,66.7062633 178.673331,66.8008114 179.681859,66.9899103 C180.690387,67.1790093 181.900602,67.664356 183.312541,68.445965 L183.312541,76.1611639 C182.379653,75.8081792 181.579146,75.5308382 180.910996,75.3291326 C180.242846,75.1274271 179.688164,74.9824534 179.246933,74.8942072 C178.805703,74.805961 178.46533,74.7555354 178.225804,74.7429288 C177.986279,74.7303222 177.816092,74.724019 177.71524,74.724019 C176.605859,74.724019 175.609953,74.9572375 174.727491,75.4236816 C173.845029,75.8901257 173.101251,76.5078397 172.496134,77.2768421 C171.891018,78.0458446 171.424581,78.9345963 171.096809,79.9431241 C170.769038,80.9516519 170.605154,81.9979837 170.605154,83.0821511 L170.605154,105.96301 L161.679728,105.96301 L161.679728,67.4626554 Z" id="eeker"></path>
                    </g>
                </g>
                <path d="M32.8870316,0.146995167 C37.5288942,0.634678072 41.8242848,2.16737278 45.773332,4.74512527 C49.7223793,7.32287777 52.9439222,10.7017729 55.4380573,14.8819121 C57.9321925,19.0620513 59.3351224,23.6253014 59.6468893,28.5717995 C59.9586562,33.5182975 59.0060495,38.4647213 56.7890405,43.4112194 C55.4034098,46.5463237 53.9138792,49.3852924 52.320404,51.9282104 C50.7269288,54.4711284 48.8909958,56.9791742 46.8125498,59.4524233 C45.2958957,61.2571674 43.0967965,63.7945404 40.215213,67.0645871 L33.0779107,60.1711972 C36.5137864,56.005766 39.2017388,52.519729 41.1418175,49.7130234 C43.7261183,45.9743236 45.6119312,42.3929126 46.7993127,38.9686829 C48.3359241,34.7058663 48.7724548,30.8449305 48.1089181,27.3857597 C47.4453814,23.9265888 46.0310217,20.9741085 43.8657967,18.5282301 C41.7005716,16.0823518 39.2036156,14.2654408 36.3748539,13.0774427 C33.5460921,11.8894447 30.8396013,11.2954545 28.2553005,11.2954545 C24.3439262,11.3653368 20.7992964,12.6581388 17.6213047,15.1738994 C14.4433131,17.68966 12.1908144,20.8692542 10.8637409,24.7127774 C9.53666752,28.5563005 9.32713275,32.3648254 10.2351304,36.1384664 C11.5622038,41.7989277 13.3257881,46.1315616 15.5259361,49.1364979 C17.7260842,52.1414341 22.3533103,57.2777017 29.4077532,64.5454545 L29.42,64.53 L42.8827467,77.9941198 L42.8206127,77.9054296 C44.4606803,79.7849878 45.7913221,81.3323657 46.8125498,82.5475767 C48.8909958,85.0208258 50.7269288,87.5288716 52.320404,90.0717896 C53.9138792,92.6147076 55.4034098,95.4536763 56.7890405,98.5887806 C59.0060495,103.604948 59.9586562,108.586205 59.6468893,113.532703 C59.3351224,118.479202 57.9148724,123.042452 55.3860965,127.222591 C52.8573206,131.40273 49.6184576,134.781625 45.6694103,137.359378 C41.720363,139.93713 37.4596127,141.434991 32.8870316,141.853005 C27.4830722,142.410357 22.1311542,141.382755 16.831117,138.770168 C11.5310799,136.157581 7.27032961,132.325844 4.0487384,127.274842 C0.827147196,122.223841 -0.471862032,116.598155 0.15167175,110.397615 C0.63664247,105.520786 1.83173096,100.853034 3.73697307,96.3942185 C5.64221518,91.9354034 7.7552702,88.1385006 10.0762015,85.0033962 C12.3971328,81.8682919 15.0297915,78.8203194 17.9742566,75.8593875 C18.4767411,75.3540929 18.9393759,74.8878563 19.3621613,74.4606776 L26.2456796,82.3225708 C23.1347947,85.5284987 20.7176401,88.1116235 18.9941702,90.071993 C16.721522,92.6570283 14.9209123,95.2070923 13.5922872,97.7222618 C12.263662,100.237431 11.1448366,103.451211 10.2357773,107.363696 C9.32671803,111.206316 9.5364978,115.048879 10.8651229,118.891499 C12.193748,122.734118 14.4488805,125.912965 17.6305881,128.428135 C20.8122956,130.943304 24.36107,132.235803 28.2770177,132.305668 C31.703472,132.4454 35.2872097,131.414895 39.0283383,129.214121 C42.769467,127.013348 45.496604,123.799569 47.2098311,119.572687 C48.9230582,115.345805 48.8006867,110.333008 46.8427128,104.534145 C45.5840153,101.040854 43.6435525,97.4428184 41.0212661,93.7399301 C38.8628348,90.6920441 35.8635058,86.8395154 32.0232145,82.1822623 L32.0242033,82.1795793 L31.5327355,81.5885901 C30.8978675,80.82161 30.2408422,80.0334274 29.5616594,79.224042 L22.705412,71 L22.7026975,71 C21.0399407,69.3279443 19.1000869,67.359825 16.8830779,65.0955829 C14.6660689,62.8313409 12.3971328,60.1665421 10.0762015,57.1011067 C7.7552702,54.0356713 5.64221518,50.2736025 3.73697307,45.8147874 C1.83173096,41.3559722 0.63664247,36.6185522 0.15167175,31.6023852 C-0.471862032,25.4018454 0.827147196,19.7761592 4.0487384,14.7251577 C7.27032961,9.67415616 11.5310799,5.84241939 16.831117,3.2298324 C22.1311542,0.617245411 27.4830722,-0.410356723 32.8870316,0.146995167 Z" id="Combined-Shape" fill="#000000"></path>
                <circle id="Oval" fill="#FFFFFF" cx="52.820058" cy="23.5300959" r="4.44380327"></circle>
            </g>
        </g>
    </g>
</svg>